<?xml version="1.0" encoding="UTF-8"?>
<svg id="Ebene_1" xmlns="http://www.w3.org/2000/svg" version="1.1" viewBox="0 0 13.1 9.3">
  <!-- Generator: Adobe Illustrator 29.6.1, SVG Export Plug-In . SVG Version: 2.1.1 Build 9)  -->
  <path d="M13.1,0c-2.6-.3-4.9,1.6-5.1,4.2s1.6,4.9,4.2,5.1c.3,0,.6,0,.9,0v-1.4c-1.7.2-3.3-.9-3.7-2.5h2.7v-1.4h-2.7c.4-1.7,2-2.8,3.7-2.5V0Z"/>
  <path d="M5.1,1.4V0C2.6-.2.3,1.6,0,4.2c-.3,2.6,1.6,4.9,4.2,5.1s.6,0,.9,0v-1.4c-.3,0-.6,0-.9,0-1.8-.3-3-1.9-2.8-3.7.3-1.8,1.9-3,3.7-2.8Z"/>
</svg>