<?xml version="1.0" encoding="UTF-8"?>
<svg id="Ebene_1" xmlns="http://www.w3.org/2000/svg" version="1.1" viewBox="0 0 6 9.3">
  <!-- Generator: Adobe Illustrator 29.6.1, SVG Export Plug-In . SVG Version: 2.1.1 Build 9)  -->
  <defs>
    <style>
      .st0 {
        fill: #010101;
      }
    </style>
  </defs>
  <path class="st0" d="M6,0l-1.4,1.5h-.1s0,0,0,0c.2,0,.3-.1.3-.3,0-.2-.1-.3-.3-.3,0,0-.1,0-.2,0-.1,0-.2-.1-.4-.2-.1,0-.3,0-.4,0v-.2h-1,0c-.1.2-.2.2-.4.2h0s-.3,0-.3,0h0c-.2.1-.3.3-.4.4h-.3v.2h.3s0,.4,0,.4L0,0v.2s1.6,1.7,1.6,1.7l.2,2.6L0,6.5v.2s1.8-2,1.8-2v.8c0,0,.3,0,.3,0v.2h.2v-.2s1.3,0,1.3,0c.2.3.6.3.9.1.1,0,.2-.2.2-.3l1.2,1.4v-.2s-1.2-1.3-1.2-1.3c0-.3-.2-.5-.5-.6h0s.2-2.5.2-2.5h.5v-.6h0S6,.2,6,.2v-.2ZM2.7.7h.7s0,.2,0,.2h-.7s0-.2,0-.2ZM2.2.9c.1,0,.2,0,.4,0v.2h1v-.2c.1,0,.3,0,.4,0,.1,0,.2,0,.3.1,0,0,0,0,0,.1h-2s0-.3,0-.3ZM1.9,1v.2s-.2,0-.2,0c0,0,.1-.2.2-.2ZM1.7,2.1l1.1,1.3-.9,1-.2-2.3ZM3.5,5.3s0,0,0,.1h-1.5s0-.8,0-.8l1-1.1,1,1.1c-.3,0-.6.4-.5.7ZM4.2,4.8l.3.3c0,0,0,.1,0,.2,0,.2-.3.3-.5.3-.2,0-.3-.3-.3-.5s.3-.3.5-.3ZM4,4.4l-.9-1,1.1-1.3-.2,2.3ZM4.3,1.5h0v.4s-.6.6-.6.6v-.2h-1.2v.3h1.2s-.6.7-.6.7l-1.3-1.4v-.5s2.5,0,2.5,0c0,0,0,0,0,0h0ZM4.4,1.7h0s0,0,0,0h0ZM4.7,2h-.3s0,0,0,0l.3-.3h0s0,.3,0,.3Z"/>
  <rect class="st0" x=".3" y="8" width="5.3" height="1.3"/>
</svg>